<mxfile host="Electron" agent="Mozilla/5.0 (X11; Linux x86_64) AppleWebKit/537.36 (KHTML, like Gecko) draw.io/26.2.2 Chrome/134.0.6998.178 Electron/35.1.2 Safari/537.36" version="26.2.2">
  <diagram id="C5RBs43oDa-KdzZeNtuy" name="Page-1">
    <mxGraphModel dx="2878" dy="1242" grid="1" gridSize="10" guides="1" tooltips="1" connect="1" arrows="1" fold="1" page="1" pageScale="1" pageWidth="2336" pageHeight="1654" math="0" shadow="0">
      <root>
        <mxCell id="WIyWlLk6GJQsqaUBKTNV-0" />
        <mxCell id="WIyWlLk6GJQsqaUBKTNV-1" parent="WIyWlLk6GJQsqaUBKTNV-0" />
        <mxCell id="fcJVb3HREh7NScvAmxeq-0" value="" style="group" parent="WIyWlLk6GJQsqaUBKTNV-1" vertex="1" connectable="0">
          <mxGeometry x="40" y="40" width="490" height="220" as="geometry" />
        </mxCell>
        <mxCell id="fcJVb3HREh7NScvAmxeq-1" value="&lt;font color=&quot;#000000&quot; size=&quot;1&quot;&gt;&lt;b style=&quot;font-size: 14px&quot;&gt;Legend:&lt;br&gt;&lt;/b&gt;&lt;/font&gt;&lt;br&gt;&lt;br&gt;&lt;br&gt;&lt;font color=&quot;#0000ff&quot; style=&quot;font-size: 6px&quot;&gt;&lt;br&gt;&lt;/font&gt;&lt;span style=&quot;color: rgb(0 , 0 , 0)&quot;&gt;&lt;font style=&quot;font-size: 4px&quot;&gt;&amp;nbsp; &amp;nbsp;&lt;/font&gt;&amp;nbsp;In progress&amp;nbsp; &amp;nbsp; &amp;nbsp; &amp;nbsp; &amp;nbsp; &amp;nbsp; In validation&amp;nbsp; &amp;nbsp; &amp;nbsp; &amp;nbsp; &amp;nbsp; &amp;nbsp;Ready to use&lt;/span&gt;&lt;font color=&quot;#000000&quot;&gt;&amp;nbsp;&lt;br&gt;&lt;/font&gt;&lt;font color=&quot;#0000ff&quot;&gt;&lt;br&gt;&lt;br&gt;&lt;br&gt;&lt;br&gt;&amp;nbsp;attribute / method()&amp;nbsp; &amp;nbsp; &amp;nbsp; &amp;nbsp; New public attribute/method to be implemented&lt;/font&gt;&lt;br&gt;&lt;font color=&quot;#000000&quot;&gt;&amp;nbsp;&lt;/font&gt;&lt;font color=&quot;#000000&quot;&gt;attribute / method()&lt;span&gt; &lt;/span&gt;&amp;nbsp; &amp;nbsp; &amp;nbsp; &amp;nbsp;New/inherited public attribute/method that is implemented here&lt;br&gt;&lt;/font&gt;&lt;font color=&quot;#0000ff&quot;&gt;&amp;nbsp;_attribute /&amp;nbsp;&lt;/font&gt;&lt;font color=&quot;#0000ff&quot;&gt;_method()&amp;nbsp; &amp;nbsp; New protected method/attribute to be implemented&lt;/font&gt;&lt;br&gt;&lt;font color=&quot;#000000&quot;&gt;&amp;nbsp;_attribute / _method()&amp;nbsp; &amp;nbsp; New/inherited protected attribute/method that is implemented here&lt;br&gt;&lt;/font&gt;&lt;font color=&quot;#000000&quot;&gt;&lt;br&gt;&lt;br&gt;&lt;br&gt;&lt;br&gt;&lt;br&gt;&lt;/font&gt;" style="text;html=1;align=left;verticalAlign=top;whiteSpace=wrap;rounded=0;fontColor=#006600;strokeColor=#000000;shadow=1;fillColor=#ffffff;" parent="fcJVb3HREh7NScvAmxeq-0" vertex="1">
          <mxGeometry width="489.99999999999994" height="220" as="geometry" />
        </mxCell>
        <mxCell id="fcJVb3HREh7NScvAmxeq-2" value="Depends on" style="endArrow=block;html=1;labelPosition=right;verticalLabelPosition=middle;align=left;verticalAlign=middle;endFill=1;fontSize=12;" parent="fcJVb3HREh7NScvAmxeq-0" edge="1">
          <mxGeometry x="-1623.1249999999998" y="-2180" width="51.041666666666664" height="50" as="geometry">
            <mxPoint x="10.20802398989899" y="120.00301587301601" as="sourcePoint" />
            <mxPoint x="55.990852272727174" y="120.00301587301601" as="targetPoint" />
            <mxPoint x="98" as="offset" />
            <Array as="points">
              <mxPoint x="30.624999999999996" y="120" />
            </Array>
          </mxGeometry>
        </mxCell>
        <mxCell id="fcJVb3HREh7NScvAmxeq-3" value="Inherits from" style="endArrow=block;html=1;labelPosition=right;verticalLabelPosition=middle;align=left;verticalAlign=middle;endFill=0;fontSize=12;" parent="fcJVb3HREh7NScvAmxeq-0" edge="1">
          <mxGeometry x="-1623.1249999999998" y="-2180" width="51.041666666666664" height="50" as="geometry">
            <mxPoint x="10.20802398989899" y="132.3846031746034" as="sourcePoint" />
            <mxPoint x="55.990852272727174" y="132.3846031746034" as="targetPoint" />
            <mxPoint x="98" y="1" as="offset" />
          </mxGeometry>
        </mxCell>
        <mxCell id="fcJVb3HREh7NScvAmxeq-4" value="" style="swimlane;fontStyle=3;align=center;verticalAlign=top;childLayout=stackLayout;horizontal=1;startSize=26;horizontalStack=0;resizeParent=1;resizeLast=0;collapsible=1;marginBottom=0;rounded=0;shadow=1;strokeWidth=1;fillColor=#f8cecc;strokeColor=#b85450;gradientColor=#ffffff;swimlaneFillColor=#ffffff;" parent="fcJVb3HREh7NScvAmxeq-0" vertex="1">
          <mxGeometry x="10.208333333333332" y="40" width="40.83333333333333" height="34" as="geometry">
            <mxRectangle x="230" y="140" width="160" height="26" as="alternateBounds" />
          </mxGeometry>
        </mxCell>
        <mxCell id="fcJVb3HREh7NScvAmxeq-5" value="" style="line;html=1;strokeWidth=1;align=left;verticalAlign=middle;spacingTop=-1;spacingLeft=3;spacingRight=3;rotatable=0;labelPosition=right;points=[];portConstraint=eastwest;" parent="fcJVb3HREh7NScvAmxeq-4" vertex="1">
          <mxGeometry y="26" width="40.83333333333333" height="8" as="geometry" />
        </mxCell>
        <mxCell id="fcJVb3HREh7NScvAmxeq-6" value="" style="swimlane;fontStyle=3;align=center;verticalAlign=top;childLayout=stackLayout;horizontal=1;startSize=26;horizontalStack=0;resizeParent=1;resizeLast=0;collapsible=1;marginBottom=0;rounded=0;shadow=1;strokeWidth=1;fillColor=#fff2cc;strokeColor=#d6b656;gradientColor=#ffffff;swimlaneFillColor=#ffffff;" parent="fcJVb3HREh7NScvAmxeq-0" vertex="1">
          <mxGeometry x="112.29166666666666" y="40" width="40.83333333333333" height="34" as="geometry">
            <mxRectangle x="230" y="140" width="160" height="26" as="alternateBounds" />
          </mxGeometry>
        </mxCell>
        <mxCell id="fcJVb3HREh7NScvAmxeq-7" value="" style="line;html=1;strokeWidth=1;align=left;verticalAlign=middle;spacingTop=-1;spacingLeft=3;spacingRight=3;rotatable=0;labelPosition=right;points=[];portConstraint=eastwest;" parent="fcJVb3HREh7NScvAmxeq-6" vertex="1">
          <mxGeometry y="26" width="40.83333333333333" height="8" as="geometry" />
        </mxCell>
        <mxCell id="fcJVb3HREh7NScvAmxeq-8" value="" style="swimlane;fontStyle=3;align=center;verticalAlign=top;childLayout=stackLayout;horizontal=1;startSize=26;horizontalStack=0;resizeParent=1;resizeLast=0;collapsible=1;marginBottom=0;rounded=0;shadow=1;strokeWidth=1;fillColor=#dae8fc;strokeColor=#6c8ebf;gradientColor=#ffffff;swimlaneFillColor=#ffffff;" parent="fcJVb3HREh7NScvAmxeq-0" vertex="1">
          <mxGeometry x="214.37499999999997" y="40" width="40.83333333333333" height="34" as="geometry">
            <mxRectangle x="230" y="140" width="160" height="26" as="alternateBounds" />
          </mxGeometry>
        </mxCell>
        <mxCell id="fcJVb3HREh7NScvAmxeq-9" value="" style="line;html=1;strokeWidth=1;align=left;verticalAlign=middle;spacingTop=-1;spacingLeft=3;spacingRight=3;rotatable=0;labelPosition=right;points=[];portConstraint=eastwest;" parent="fcJVb3HREh7NScvAmxeq-8" vertex="1">
          <mxGeometry y="26" width="40.83333333333333" height="8" as="geometry" />
        </mxCell>
        <mxCell id="snStFESme1t0pUEIyn34-86" value="Deriver (StreamTask)" style="swimlane;fontStyle=3;align=center;verticalAlign=top;childLayout=stackLayout;horizontal=1;startSize=26;horizontalStack=0;resizeParent=1;resizeLast=0;collapsible=1;marginBottom=0;rounded=0;shadow=1;strokeWidth=1;swimlaneFillColor=#ffffff;fillColor=#dae8fc;strokeColor=#6c8ebf;gradientColor=#FFFFFF;" parent="WIyWlLk6GJQsqaUBKTNV-1" vertex="1">
          <mxGeometry x="440" y="360" width="300" height="280" as="geometry">
            <mxRectangle x="230" y="140" width="160" height="26" as="alternateBounds" />
          </mxGeometry>
        </mxCell>
        <mxCell id="snStFESme1t0pUEIyn34-87" value="C_NAME  = &#39;Deriver&#39;" style="text;align=left;verticalAlign=top;spacingLeft=4;spacingRight=4;overflow=hidden;rotatable=0;points=[[0,0.5],[1,0.5]];portConstraint=eastwest;" parent="snStFESme1t0pUEIyn34-86" vertex="1">
          <mxGeometry y="26" width="300" height="26" as="geometry" />
        </mxCell>
        <mxCell id="snStFESme1t0pUEIyn34-88" value="" style="line;html=1;strokeWidth=1;align=left;verticalAlign=middle;spacingTop=-1;spacingLeft=3;spacingRight=3;rotatable=0;labelPosition=right;points=[];portConstraint=eastwest;" parent="snStFESme1t0pUEIyn34-86" vertex="1">
          <mxGeometry y="52" width="300" height="8" as="geometry" />
        </mxCell>
        <mxCell id="KJBrdm80ZSPiqIVyZJvV-3" value="__init__( p_name : str = None,&#xa;               p_range_max = Task.C_RANGE_THREAD,&#xa;               p_duplicate_data : bool = False,               &#xa;               p_visualize : bool = False,&#xa;               p_logging = Log.C_LOG_ALL,&#xa;               p_derived_feature : Feature = None,&#xa;               p_derived_label : Label = None,&#xa;               p_order_derivative : int = 1,&#xa;               **p_kwargs )" style="text;align=left;verticalAlign=top;spacingLeft=4;spacingRight=4;overflow=hidden;rotatable=0;points=[[0,0.5],[1,0.5]];portConstraint=eastwest;fontColor=#000000;" parent="snStFESme1t0pUEIyn34-86" vertex="1">
          <mxGeometry y="60" width="300" height="140" as="geometry" />
        </mxCell>
        <mxCell id="ziDOCn-plolzUh1pld_2-0" value="_prepare_derivation( p_instance : Instance)" style="text;align=left;verticalAlign=top;spacingLeft=4;spacingRight=4;overflow=hidden;rotatable=0;points=[[0,0.5],[1,0.5]];portConstraint=eastwest;fontColor=default;" parent="snStFESme1t0pUEIyn34-86" vertex="1">
          <mxGeometry y="200" width="300" height="27" as="geometry" />
        </mxCell>
        <mxCell id="KJBrdm80ZSPiqIVyZJvV-5" value="_run( p_instances : InstDict )" style="text;align=left;verticalAlign=top;spacingLeft=4;spacingRight=4;overflow=hidden;rotatable=0;points=[[0,0.5],[1,0.5]];portConstraint=eastwest;fontColor=default;" parent="snStFESme1t0pUEIyn34-86" vertex="1">
          <mxGeometry y="227" width="300" height="27" as="geometry" />
        </mxCell>
        <mxCell id="u3v9urasm3pmmn6C9xJ7-6" value="_derive_data( p_instance : Instance )" style="text;align=left;verticalAlign=top;spacingLeft=4;spacingRight=4;overflow=hidden;rotatable=0;points=[[0,0.5],[1,0.5]];portConstraint=eastwest;fontColor=#000000;" parent="snStFESme1t0pUEIyn34-86" vertex="1">
          <mxGeometry y="254" width="300" height="23" as="geometry" />
        </mxCell>
        <mxCell id="KJBrdm80ZSPiqIVyZJvV-1" value="&lt;b&gt;Adds further features to the feature space by numerically deriving existing features&lt;/b&gt;" style="rounded=1;whiteSpace=wrap;html=1;align=left;spacingLeft=2;verticalAlign=middle;fillColor=#fff2cc;strokeColor=#d6b656;gradientColor=none;shadow=1;" parent="WIyWlLk6GJQsqaUBKTNV-1" vertex="1">
          <mxGeometry x="720" y="300" width="140" height="70" as="geometry" />
        </mxCell>
        <mxCell id="nldknDk9x2_fB6NWM6IH-0" value="DerivativeFunction&#xa;(bf.physics.TransferFunction)" style="swimlane;fontStyle=3;align=center;verticalAlign=top;childLayout=stackLayout;horizontal=1;startSize=40;horizontalStack=0;resizeParent=1;resizeLast=0;collapsible=1;marginBottom=0;rounded=0;shadow=1;strokeWidth=1;swimlaneFillColor=#ffffff;fillColor=#dae8fc;strokeColor=#6c8ebf;gradientColor=#FFFFFF;" parent="WIyWlLk6GJQsqaUBKTNV-1" vertex="1">
          <mxGeometry x="800" y="440" width="300" height="100" as="geometry">
            <mxRectangle x="230" y="140" width="160" height="26" as="alternateBounds" />
          </mxGeometry>
        </mxCell>
        <mxCell id="nldknDk9x2_fB6NWM6IH-2" value="" style="line;html=1;strokeWidth=1;align=left;verticalAlign=middle;spacingTop=-1;spacingLeft=3;spacingRight=3;rotatable=0;labelPosition=right;points=[];portConstraint=eastwest;" parent="nldknDk9x2_fB6NWM6IH-0" vertex="1">
          <mxGeometry y="40" width="300" height="8" as="geometry" />
        </mxCell>
        <mxCell id="nldknDk9x2_fB6NWM6IH-4" value="_set_function_parameters( p_args ): bool" style="text;align=left;verticalAlign=top;spacingLeft=4;spacingRight=4;overflow=hidden;rotatable=0;points=[[0,0.5],[1,0.5]];portConstraint=eastwest;fontColor=#000000;" parent="nldknDk9x2_fB6NWM6IH-0" vertex="1">
          <mxGeometry y="48" width="300" height="27" as="geometry" />
        </mxCell>
        <mxCell id="nldknDk9x2_fB6NWM6IH-5" value="_custom_function( p_input:list, p_ range:list ): list" style="text;align=left;verticalAlign=top;spacingLeft=4;spacingRight=4;overflow=hidden;rotatable=0;points=[[0,0.5],[1,0.5]];portConstraint=eastwest;fontColor=#000000;" parent="nldknDk9x2_fB6NWM6IH-0" vertex="1">
          <mxGeometry y="75" width="300" height="23" as="geometry" />
        </mxCell>
        <mxCell id="nldknDk9x2_fB6NWM6IH-6" style="edgeStyle=orthogonalEdgeStyle;rounded=0;orthogonalLoop=1;jettySize=auto;html=1;exitX=1;exitY=0.5;exitDx=0;exitDy=0;entryX=0;entryY=0.5;entryDx=0;entryDy=0;fontColor=#000000;" parent="WIyWlLk6GJQsqaUBKTNV-1" source="KJBrdm80ZSPiqIVyZJvV-3" target="nldknDk9x2_fB6NWM6IH-0" edge="1">
          <mxGeometry relative="1" as="geometry" />
        </mxCell>
      </root>
    </mxGraphModel>
  </diagram>
</mxfile>
